<?xml version="1.0" standalone="no"?>
<!DOCTYPE svg PUBLIC "-//W3C//DTD SVG 20010904//EN"
 "http://www.w3.org/TR/2001/REC-SVG-20010904/DTD/svg10.dtd">
<svg version="1.0" xmlns="http://www.w3.org/2000/svg"
 width="400.000000pt" height="400.000000pt" viewBox="0 0 400.000000 400.000000"
 preserveAspectRatio="xMidYMid meet">
<metadata>
Created by potrace 1.15, written by Peter Selinger 2001-2017
</metadata>
<g transform="translate(0.000000,400.000000) scale(0.100000,-0.100000)"
fill="#000000" stroke="none">
<path d="M1710 3984 c-639 -93 -1198 -495 -1496 -1076 -103 -202 -167 -405
-198 -627 -21 -146 -21 -416 0 -562 89 -643 491 -1205 1076 -1505 291 -149
568 -214 908 -214 193 0 340 18 507 60 427 111 828 379 1090 732 215 289 340
588 387 927 21 146 21 416 0 562 -89 643 -491 1205 -1076 1505 -202 103 -405
167 -627 198 -138 20 -437 19 -571 0z m570 -388 c335 -61 637 -222 876 -468
235 -242 380 -521 442 -853 23 -124 23 -426 0 -550 -111 -593 -528 -1075
-1093 -1264 -181 -60 -279 -75 -505 -75 -175 0 -221 4 -310 23 -337 72 -617
226 -851 467 -224 233 -361 492 -430 814 -19 89 -23 135 -23 310 0 175 4 221
23 310 72 337 226 617 467 851 257 247 555 394 904 445 119 17 382 12 500 -10z"/>
<path d="M1250 2000 l0 -750 250 0 250 0 0 750 0 750 -250 0 -250 0 0 -750z"/>
<path d="M2250 2000 l0 -750 250 0 250 0 0 750 0 750 -250 0 -250 0 0 -750z"/>
</g>
</svg>
