<?xml version="1.0" standalone="no"?>
<!DOCTYPE svg PUBLIC "-//W3C//DTD SVG 20010904//EN"
 "http://www.w3.org/TR/2001/REC-SVG-20010904/DTD/svg10.dtd">
<svg version="1.0" xmlns="http://www.w3.org/2000/svg"
 width="400.000000pt" height="400.000000pt" viewBox="0 0 400.000000 400.000000"
 preserveAspectRatio="xMidYMid meet">
<metadata>
Created by potrace 1.15, written by Peter Selinger 2001-2017
</metadata>
<g transform="translate(0.000000,400.000000) scale(0.100000,-0.100000)"
fill="#000000" stroke="none">
<path d="M1707 3984 c-869 -126 -1570 -831 -1691 -1703 -21 -146 -21 -416 0
-562 122 -878 825 -1581 1703 -1703 146 -21 416 -21 562 0 878 122 1581 825
1703 1703 21 146 21 416 0 562 -122 878 -825 1581 -1703 1703 -139 20 -437 19
-574 0z m608 -394 c327 -69 609 -223 841 -462 227 -233 366 -493 435 -818 19
-89 23 -135 23 -310 0 -175 -4 -221 -23 -310 -69 -325 -208 -585 -435 -818
-233 -240 -510 -391 -846 -463 -89 -19 -135 -23 -310 -23 -175 0 -221 4 -310
23 -336 72 -613 223 -846 463 -227 233 -366 493 -435 818 -19 89 -23 135 -23
310 0 226 15 324 75 505 119 357 374 679 691 873 199 122 430 204 649 232 120
15 398 4 514 -20z"/>
<path d="M1250 2000 c0 -412 1 -750 3 -750 2 0 226 167 498 371 l494 370 3
-370 2 -371 250 0 250 0 0 750 0 750 -250 0 -250 0 -2 -371 -3 -370 -494 370
c-272 204 -496 371 -498 371 -2 0 -3 -337 -3 -750z"/>
</g>
</svg>
