<?xml version="1.0" standalone="no"?>
<!DOCTYPE svg PUBLIC "-//W3C//DTD SVG 20010904//EN"
 "http://www.w3.org/TR/2001/REC-SVG-20010904/DTD/svg10.dtd">
<svg version="1.0" xmlns="http://www.w3.org/2000/svg"
 width="400.000000pt" height="400.000000pt" viewBox="0 0 400.000000 400.000000"
 preserveAspectRatio="xMidYMid meet">
<metadata>
Created by potrace 1.15, written by Peter Selinger 2001-2017
</metadata>
<g transform="translate(0.000000,400.000000) scale(0.100000,-0.100000)"
fill="#000000" stroke="none">
<path d="M2563 3763 c-17 -10 -224 -208 -459 -440 l-429 -423 425 -425 c295
-295 438 -432 469 -447 156 -76 341 58 317 230 -9 70 -31 100 -189 260 l-152
152 256 0 c350 0 406 -16 550 -161 205 -204 258 -533 130 -795 -49 -98 -137
-196 -229 -257 -118 -77 -169 -92 -383 -113 -114 -11 -196 -95 -206 -211 -4
-50 -1 -65 24 -113 22 -43 41 -62 83 -87 51 -31 59 -33 153 -33 275 0 540 113
747 320 210 209 315 444 327 735 9 212 -23 385 -102 552 -136 288 -365 495
-640 579 -88 27 -97 28 -398 32 l-309 4 150 151 c82 84 156 166 165 183 56
109 9 258 -97 308 -47 22 -161 22 -203 -1z"/>
<path d="M905 3104 c-414 -74 -763 -397 -876 -812 -29 -109 -37 -371 -15 -498
76 -436 403 -797 798 -878 60 -12 141 -16 359 -16 l283 0 -156 -157 c-174
-178 -194 -210 -186 -307 7 -79 48 -142 118 -179 48 -25 63 -28 117 -24 37 3
74 12 91 23 16 11 221 208 455 440 l426 420 -432 431 c-238 237 -446 438 -464
447 -78 39 -204 10 -262 -61 -52 -63 -65 -178 -29 -247 7 -14 80 -95 161 -180
l149 -156 -260 0 c-305 0 -342 7 -459 89 -125 88 -223 241 -258 404 -25 116
-17 287 18 387 67 190 246 359 438 414 31 9 101 21 156 25 111 10 145 23 198
78 77 79 81 207 10 291 -54 63 -104 82 -211 81 -49 0 -125 -7 -169 -15z"/>
</g>
</svg>
