<?xml version="1.0" standalone="no"?>
<!DOCTYPE svg PUBLIC "-//W3C//DTD SVG 20010904//EN"
 "http://www.w3.org/TR/2001/REC-SVG-20010904/DTD/svg10.dtd">
<svg version="1.0" xmlns="http://www.w3.org/2000/svg"
 width="400.000000pt" height="400.000000pt" viewBox="0 0 400.000000 400.000000"
 preserveAspectRatio="xMidYMid meet">
<metadata>
Created by potrace 1.15, written by Peter Selinger 2001-2017
</metadata>
<g transform="translate(0.000000,400.000000) scale(0.100000,-0.100000)"
fill="#000000" stroke="none">
<path d="M2960 3881 c-107 -35 -163 -109 -164 -216 0 -37 7 -74 18 -97 10 -21
86 -107 168 -193 l150 -155 -245 0 c-329 0 -427 -19 -633 -121 -133 -66 -285
-182 -409 -311 -185 -192 -261 -328 -385 -693 -45 -132 -104 -285 -130 -341
-106 -226 -272 -414 -440 -501 l-55 -28 -345 -5 c-317 -5 -348 -7 -375 -24
-83 -52 -115 -107 -115 -196 0 -75 23 -124 81 -173 64 -56 99 -59 479 -54 373
4 389 7 536 77 213 103 445 335 584 586 68 122 102 205 195 474 85 246 131
349 202 448 97 136 274 286 415 352 115 53 161 60 412 60 l230 0 -156 -157
c-168 -171 -182 -194 -181 -290 1 -105 74 -193 175 -212 61 -11 134 2 173 32
17 12 217 210 445 440 l414 418 -415 415 c-228 228 -433 427 -456 440 -45 27
-130 39 -173 25z"/>
<path d="M142 3207 c-50 -19 -98 -62 -121 -110 -27 -57 -28 -144 -2 -196 26
-50 91 -107 138 -120 24 -7 197 -11 474 -11 371 0 443 -2 490 -16 90 -27 149
-63 223 -135 51 -50 73 -66 79 -57 58 100 132 210 187 280 l69 87 -42 38
c-116 106 -256 187 -394 225 -75 21 -98 22 -573 25 -368 1 -503 -1 -528 -10z"/>
<path d="M2942 1877 c-49 -19 -100 -63 -124 -110 -28 -55 -29 -147 -2 -199 10
-20 86 -107 167 -192 l149 -156 -259 0 c-274 0 -359 8 -450 40 -157 55 -314
214 -368 373 -10 31 -22 57 -25 57 -3 0 -16 -30 -29 -66 -30 -84 -115 -258
-170 -347 -22 -37 -41 -72 -41 -78 0 -6 48 -59 108 -118 118 -118 226 -192
352 -240 147 -57 196 -63 554 -68 l328 -5 -150 -152 c-82 -83 -158 -167 -168
-186 -22 -43 -23 -141 -2 -190 19 -45 72 -99 115 -116 48 -21 147 -18 191 5
20 11 228 211 462 445 l425 426 -425 425 c-236 236 -441 433 -460 442 -44 21
-135 26 -178 10z"/>
</g>
</svg>
