<?xml version="1.0" standalone="no"?>
<!DOCTYPE svg PUBLIC "-//W3C//DTD SVG 20010904//EN"
 "http://www.w3.org/TR/2001/REC-SVG-20010904/DTD/svg10.dtd">
<svg version="1.0" xmlns="http://www.w3.org/2000/svg"
 width="400.000000pt" height="400.000000pt" viewBox="0 0 400.000000 400.000000"
 preserveAspectRatio="xMidYMid meet">
<metadata>
Created by potrace 1.15, written by Peter Selinger 2001-2017
</metadata>
<g transform="translate(0.000000,400.000000) scale(0.100000,-0.100000)"
fill="#000000" stroke="none">
<path d="M2775 3971 c-16 -10 -277 -267 -580 -570 l-550 -551 -275 0 c-255 0
-277 -1 -307 -20 -66 -40 -63 -1 -63 -835 0 -834 -3 -795 63 -835 30 -19 52
-20 307 -20 l275 0 555 -556 c305 -305 567 -562 582 -570 69 -36 165 -4 200
66 17 33 18 145 18 1915 0 1770 -1 1882 -18 1915 -37 74 -139 104 -207 61z"/>
</g>
</svg>
